<mxfile host="app.diagrams.net" agent="Mozilla/5.0 (Windows NT 10.0; Win64; x64) AppleWebKit/537.36 (KHTML, like Gecko) Chrome/128.0.0.0 Safari/537.36 OPR/114.0.0.0" version="26.0.6">
  <diagram id="C5RBs43oDa-KdzZeNtuy" name="Page-1">
    <mxGraphModel dx="1393" dy="763" grid="1" gridSize="10" guides="1" tooltips="1" connect="1" arrows="1" fold="1" page="1" pageScale="1" pageWidth="827" pageHeight="1169" math="0" shadow="0">
      <root>
        <mxCell id="WIyWlLk6GJQsqaUBKTNV-0" />
        <mxCell id="WIyWlLk6GJQsqaUBKTNV-1" parent="WIyWlLk6GJQsqaUBKTNV-0" />
        <mxCell id="Xyt43jpgbzikZEA7ic4p-0" style="edgeStyle=orthogonalEdgeStyle;rounded=0;orthogonalLoop=1;jettySize=auto;html=1;entryX=0.5;entryY=0;entryDx=0;entryDy=0;" edge="1" parent="WIyWlLk6GJQsqaUBKTNV-1" source="Xyt43jpgbzikZEA7ic4p-1" target="Xyt43jpgbzikZEA7ic4p-3">
          <mxGeometry relative="1" as="geometry" />
        </mxCell>
        <mxCell id="Xyt43jpgbzikZEA7ic4p-1" value="START" style="ellipse;whiteSpace=wrap;html=1;" vertex="1" parent="WIyWlLk6GJQsqaUBKTNV-1">
          <mxGeometry x="150" y="70" width="120" height="80" as="geometry" />
        </mxCell>
        <mxCell id="Xyt43jpgbzikZEA7ic4p-9" style="edgeStyle=orthogonalEdgeStyle;rounded=0;orthogonalLoop=1;jettySize=auto;html=1;entryX=0.5;entryY=0;entryDx=0;entryDy=0;" edge="1" parent="WIyWlLk6GJQsqaUBKTNV-1" source="Xyt43jpgbzikZEA7ic4p-3" target="Xyt43jpgbzikZEA7ic4p-4">
          <mxGeometry relative="1" as="geometry" />
        </mxCell>
        <mxCell id="Xyt43jpgbzikZEA7ic4p-3" value="Wczytaj:&lt;div&gt;arr[], n&lt;/div&gt;" style="shape=parallelogram;perimeter=parallelogramPerimeter;whiteSpace=wrap;html=1;fixedSize=1;align=center;" vertex="1" parent="WIyWlLk6GJQsqaUBKTNV-1">
          <mxGeometry x="148" y="210" width="124" height="60" as="geometry" />
        </mxCell>
        <mxCell id="Xyt43jpgbzikZEA7ic4p-11" style="edgeStyle=orthogonalEdgeStyle;rounded=0;orthogonalLoop=1;jettySize=auto;html=1;" edge="1" parent="WIyWlLk6GJQsqaUBKTNV-1" source="Xyt43jpgbzikZEA7ic4p-4" target="Xyt43jpgbzikZEA7ic4p-10">
          <mxGeometry relative="1" as="geometry">
            <Array as="points">
              <mxPoint x="130" y="350" />
            </Array>
          </mxGeometry>
        </mxCell>
        <mxCell id="Xyt43jpgbzikZEA7ic4p-4" value="n&amp;lt;2" style="rhombus;whiteSpace=wrap;html=1;" vertex="1" parent="WIyWlLk6GJQsqaUBKTNV-1">
          <mxGeometry x="170" y="310" width="80" height="80" as="geometry" />
        </mxCell>
        <mxCell id="Xyt43jpgbzikZEA7ic4p-5" value="TAK" style="text;html=1;align=center;verticalAlign=middle;whiteSpace=wrap;rounded=0;" vertex="1" parent="WIyWlLk6GJQsqaUBKTNV-1">
          <mxGeometry x="130" y="320" width="60" height="30" as="geometry" />
        </mxCell>
        <mxCell id="Xyt43jpgbzikZEA7ic4p-6" value="NIE" style="text;html=1;align=center;verticalAlign=middle;whiteSpace=wrap;rounded=0;" vertex="1" parent="WIyWlLk6GJQsqaUBKTNV-1">
          <mxGeometry x="230" y="320" width="60" height="30" as="geometry" />
        </mxCell>
        <mxCell id="Xyt43jpgbzikZEA7ic4p-7" value="" style="endArrow=classic;html=1;rounded=0;exitX=0;exitY=1;exitDx=0;exitDy=0;entryX=0;entryY=0.5;entryDx=0;entryDy=0;" edge="1" parent="WIyWlLk6GJQsqaUBKTNV-1" target="Xyt43jpgbzikZEA7ic4p-8">
          <mxGeometry width="50" height="50" relative="1" as="geometry">
            <mxPoint x="250" y="350" as="sourcePoint" />
            <mxPoint x="372" y="350" as="targetPoint" />
          </mxGeometry>
        </mxCell>
        <mxCell id="Xyt43jpgbzikZEA7ic4p-8" value="count = 0&lt;div&gt;length = 1&lt;/div&gt;&lt;div&gt;i = 1&lt;/div&gt;" style="rounded=0;whiteSpace=wrap;html=1;" vertex="1" parent="WIyWlLk6GJQsqaUBKTNV-1">
          <mxGeometry x="290" y="320" width="80" height="60" as="geometry" />
        </mxCell>
        <mxCell id="Xyt43jpgbzikZEA7ic4p-13" style="edgeStyle=orthogonalEdgeStyle;rounded=0;orthogonalLoop=1;jettySize=auto;html=1;entryX=0;entryY=0.5;entryDx=0;entryDy=0;" edge="1" parent="WIyWlLk6GJQsqaUBKTNV-1" source="Xyt43jpgbzikZEA7ic4p-10" target="Xyt43jpgbzikZEA7ic4p-12">
          <mxGeometry relative="1" as="geometry" />
        </mxCell>
        <mxCell id="Xyt43jpgbzikZEA7ic4p-10" value="Wypisz: 0" style="shape=parallelogram;perimeter=parallelogramPerimeter;whiteSpace=wrap;html=1;fixedSize=1;" vertex="1" parent="WIyWlLk6GJQsqaUBKTNV-1">
          <mxGeometry x="60" y="490" width="140" height="60" as="geometry" />
        </mxCell>
        <mxCell id="Xyt43jpgbzikZEA7ic4p-12" value="KONIEC" style="ellipse;whiteSpace=wrap;html=1;" vertex="1" parent="WIyWlLk6GJQsqaUBKTNV-1">
          <mxGeometry x="150" y="660" width="120" height="80" as="geometry" />
        </mxCell>
        <mxCell id="Xyt43jpgbzikZEA7ic4p-14" style="edgeStyle=orthogonalEdgeStyle;rounded=0;orthogonalLoop=1;jettySize=auto;html=1;entryX=0;entryY=0.5;entryDx=0;entryDy=0;" edge="1" parent="WIyWlLk6GJQsqaUBKTNV-1" target="Xyt43jpgbzikZEA7ic4p-17">
          <mxGeometry relative="1" as="geometry">
            <mxPoint x="370" y="350" as="sourcePoint" />
          </mxGeometry>
        </mxCell>
        <mxCell id="Xyt43jpgbzikZEA7ic4p-30" style="edgeStyle=orthogonalEdgeStyle;rounded=0;orthogonalLoop=1;jettySize=auto;html=1;" edge="1" parent="WIyWlLk6GJQsqaUBKTNV-1" source="Xyt43jpgbzikZEA7ic4p-33" target="Xyt43jpgbzikZEA7ic4p-28">
          <mxGeometry relative="1" as="geometry" />
        </mxCell>
        <mxCell id="Xyt43jpgbzikZEA7ic4p-31" style="edgeStyle=orthogonalEdgeStyle;rounded=0;orthogonalLoop=1;jettySize=auto;html=1;entryX=0.5;entryY=0;entryDx=0;entryDy=0;" edge="1" parent="WIyWlLk6GJQsqaUBKTNV-1" source="Xyt43jpgbzikZEA7ic4p-17" target="Xyt43jpgbzikZEA7ic4p-20">
          <mxGeometry relative="1" as="geometry" />
        </mxCell>
        <mxCell id="Xyt43jpgbzikZEA7ic4p-17" value="i&amp;lt;n" style="rhombus;whiteSpace=wrap;html=1;" vertex="1" parent="WIyWlLk6GJQsqaUBKTNV-1">
          <mxGeometry x="414" y="310" width="80" height="80" as="geometry" />
        </mxCell>
        <mxCell id="Xyt43jpgbzikZEA7ic4p-18" value="NIE" style="text;html=1;align=center;verticalAlign=middle;whiteSpace=wrap;rounded=0;" vertex="1" parent="WIyWlLk6GJQsqaUBKTNV-1">
          <mxGeometry x="474" y="320" width="60" height="30" as="geometry" />
        </mxCell>
        <mxCell id="Xyt43jpgbzikZEA7ic4p-38" style="edgeStyle=orthogonalEdgeStyle;rounded=0;orthogonalLoop=1;jettySize=auto;html=1;entryX=1;entryY=0.5;entryDx=0;entryDy=0;" edge="1" parent="WIyWlLk6GJQsqaUBKTNV-1" source="Xyt43jpgbzikZEA7ic4p-20" target="Xyt43jpgbzikZEA7ic4p-37">
          <mxGeometry relative="1" as="geometry" />
        </mxCell>
        <mxCell id="Xyt43jpgbzikZEA7ic4p-20" value="arr[i]&amp;lt;arr[i-1]" style="rhombus;whiteSpace=wrap;html=1;" vertex="1" parent="WIyWlLk6GJQsqaUBKTNV-1">
          <mxGeometry x="414" y="430" width="80" height="80" as="geometry" />
        </mxCell>
        <mxCell id="Xyt43jpgbzikZEA7ic4p-21" value="TAK" style="text;html=1;align=center;verticalAlign=middle;whiteSpace=wrap;rounded=0;" vertex="1" parent="WIyWlLk6GJQsqaUBKTNV-1">
          <mxGeometry x="439" y="380" width="60" height="30" as="geometry" />
        </mxCell>
        <mxCell id="Xyt43jpgbzikZEA7ic4p-22" value="NIE" style="text;html=1;align=center;verticalAlign=middle;whiteSpace=wrap;rounded=0;" vertex="1" parent="WIyWlLk6GJQsqaUBKTNV-1">
          <mxGeometry x="439" y="500" width="60" height="30" as="geometry" />
        </mxCell>
        <mxCell id="Xyt43jpgbzikZEA7ic4p-32" style="edgeStyle=orthogonalEdgeStyle;rounded=0;orthogonalLoop=1;jettySize=auto;html=1;entryX=1;entryY=0.5;entryDx=0;entryDy=0;exitX=0.5;exitY=1;exitDx=0;exitDy=0;" edge="1" parent="WIyWlLk6GJQsqaUBKTNV-1" source="Xyt43jpgbzikZEA7ic4p-28" target="Xyt43jpgbzikZEA7ic4p-12">
          <mxGeometry relative="1" as="geometry">
            <Array as="points">
              <mxPoint x="610" y="700" />
            </Array>
          </mxGeometry>
        </mxCell>
        <mxCell id="Xyt43jpgbzikZEA7ic4p-28" value="Wypisz: count" style="shape=parallelogram;perimeter=parallelogramPerimeter;whiteSpace=wrap;html=1;fixedSize=1;" vertex="1" parent="WIyWlLk6GJQsqaUBKTNV-1">
          <mxGeometry x="540" y="555" width="140" height="60" as="geometry" />
        </mxCell>
        <mxCell id="Xyt43jpgbzikZEA7ic4p-34" value="" style="edgeStyle=orthogonalEdgeStyle;rounded=0;orthogonalLoop=1;jettySize=auto;html=1;" edge="1" parent="WIyWlLk6GJQsqaUBKTNV-1" source="Xyt43jpgbzikZEA7ic4p-17" target="Xyt43jpgbzikZEA7ic4p-33">
          <mxGeometry relative="1" as="geometry">
            <mxPoint x="510" y="350" as="sourcePoint" />
            <mxPoint x="620" y="580" as="targetPoint" />
          </mxGeometry>
        </mxCell>
        <mxCell id="Xyt43jpgbzikZEA7ic4p-33" value="count += (length * (length - 1)) / 2;" style="rounded=0;whiteSpace=wrap;html=1;" vertex="1" parent="WIyWlLk6GJQsqaUBKTNV-1">
          <mxGeometry x="550" y="410" width="120" height="60" as="geometry" />
        </mxCell>
        <mxCell id="Xyt43jpgbzikZEA7ic4p-36" value="" style="edgeStyle=orthogonalEdgeStyle;rounded=0;orthogonalLoop=1;jettySize=auto;html=1;entryX=0.5;entryY=0;entryDx=0;entryDy=0;" edge="1" parent="WIyWlLk6GJQsqaUBKTNV-1" source="Xyt43jpgbzikZEA7ic4p-20" target="Xyt43jpgbzikZEA7ic4p-35">
          <mxGeometry relative="1" as="geometry">
            <mxPoint x="454" y="510" as="sourcePoint" />
            <mxPoint x="454" y="550" as="targetPoint" />
          </mxGeometry>
        </mxCell>
        <mxCell id="Xyt43jpgbzikZEA7ic4p-41" style="edgeStyle=orthogonalEdgeStyle;rounded=0;orthogonalLoop=1;jettySize=auto;html=1;" edge="1" parent="WIyWlLk6GJQsqaUBKTNV-1" source="Xyt43jpgbzikZEA7ic4p-35">
          <mxGeometry relative="1" as="geometry">
            <mxPoint x="330" y="420" as="targetPoint" />
            <Array as="points">
              <mxPoint x="280" y="585" />
              <mxPoint x="280" y="420" />
            </Array>
          </mxGeometry>
        </mxCell>
        <mxCell id="Xyt43jpgbzikZEA7ic4p-35" value="count += (length * (length - 1)) / 2&lt;div&gt;length = 1&lt;br&gt;++i&lt;/div&gt;" style="rounded=0;whiteSpace=wrap;html=1;" vertex="1" parent="WIyWlLk6GJQsqaUBKTNV-1">
          <mxGeometry x="398" y="550" width="112" height="70" as="geometry" />
        </mxCell>
        <mxCell id="Xyt43jpgbzikZEA7ic4p-39" style="edgeStyle=orthogonalEdgeStyle;rounded=0;orthogonalLoop=1;jettySize=auto;html=1;" edge="1" parent="WIyWlLk6GJQsqaUBKTNV-1" source="Xyt43jpgbzikZEA7ic4p-37">
          <mxGeometry relative="1" as="geometry">
            <mxPoint x="391" y="350" as="targetPoint" />
            <Array as="points">
              <mxPoint x="330" y="420" />
              <mxPoint x="391" y="420" />
            </Array>
          </mxGeometry>
        </mxCell>
        <mxCell id="Xyt43jpgbzikZEA7ic4p-37" value="++length&lt;br&gt;++i" style="rounded=0;whiteSpace=wrap;html=1;" vertex="1" parent="WIyWlLk6GJQsqaUBKTNV-1">
          <mxGeometry x="300" y="450" width="60" height="40" as="geometry" />
        </mxCell>
        <mxCell id="Xyt43jpgbzikZEA7ic4p-40" value="TAK" style="text;html=1;align=center;verticalAlign=middle;whiteSpace=wrap;rounded=0;" vertex="1" parent="WIyWlLk6GJQsqaUBKTNV-1">
          <mxGeometry x="379" y="440" width="60" height="30" as="geometry" />
        </mxCell>
      </root>
    </mxGraphModel>
  </diagram>
</mxfile>
